/* XPM */
static char *b_front11709219749[] = {
/* columns rows colors chars-per-pixel */
"34 34 21 1 ",
"  c #302820",
". c #282838",
"X c #303038",
"o c #204820",
"O c #383840",
"+ c #505058",
"@ c #484860",
"# c #686870",
"$ c #D84808",
"% c #F86028",
"& c #00C000",
"* c #F8A030",
"= c #F8C820",
"- c #707080",
"; c #606090",
": c #808088",
"> c #9898A8",
", c #98C898",
"< c #C0C0C8",
"1 c #E8F8E8",
"2 c #F8F8F8",
/* pixels */
"&&&&&&&&&&&&&&&&&&&&&&&&&&&&&&&&&&",
"&&&&&&&&&&&&&&&&....&&&&&&&&&&&&&&",
"&&&&&&&&&&&&&&.XO++OX.&&&&&&&&&&&&",
"&&&&&&&&&&.&&.XO+::+OX.&&&&&&&&&&&",
"&&&&&&&&..2.&.O++==++O.&&&&&&&&&&&",
"&&&&&&&.>.<.&...+==+...&&&&&&&&&&&",
"&&&&&&&.><.-@-<-#==#-<-@&&&&&&&&&&",
"&&&&&&&&.2<@@->.=22=.>-@&&&&&&&&&&",
"&&&&&&&..2<.$$.2.**.2.$$..&.&&&&&&",
"&&&&&&.#X.-$%*.22..22.*%$-.2.&&&&&",
"&&&&&.o11,;%*..O.::...*%$@><-.&&&&",
"&&&&.2o11,1,;..O+##+.*=..-<.><.&&&",
"&&&.>.o,11;,1,;.+##+.*..<222<.&&&&",
"&&&..%%oo,1,;,1,;++;.>.X+X...&&&&&",
"&&&.%*%.&oo,1,;,,,o,o>@O+:O.&&&&&&",
"&&&.%%$.&&&oo,,;;;;,o..@<2:.&&&&&&",
"&&&&...&&&&&.oo,;o,;o%.<2-2.&&&&&&",
"&&&&&&&&&&&&&.<oo;1o%*%.>@<.&&&&&&",
"&&&&&&&&&&&&.#-<21;o$%%....&&&&&&&",
"&&&&&&&&&&&.#::X>ooO...&&&&&&&&&&&",
"&&&&&&&&&&&.::#+@<>O#+X.&&&&&&&&&&",
"&&&&&&&&&&..#:#X.22X+OX.&&&&&&&&&&",
"&&&&&&&&&.<.XOO>.<2>X.><.&&&&&&&&&",
"&&&&&&&&&.-><22>..<@><<.&&&&&&&&&&",
"&&&&&&&&&&.-<<<-.&.@@..&&&&&&&&&&&",
"&&&&&&&&&&&.@@-..&.XX.&&&&&&&&&&&&",
"&&&&&&&&&&&.@><@.&.O+O.&&&&&&&&&&&",
"&&&&&&&&&&&&.><-. .+#+.&&&&&&&&&&&",
"&&&&&&&&&&&.XXX>.  ....&&&&&&&&&&&",
"&&&&&&&&&&.X+#+.        &&&&&&&&&&",
"&&&&&&&&&&.+#:#.        &&&&&&&&&&",
"&&&&&&&&&&&....        &&&&&&&&&&&",
"&&&&&&&&&&&&&&&      &&&&&&&&&&&&&",
"&&&&&&&&&&&&&&&&&&&&&&&&&&&&&&&&&&"
};
