/* XPM */
static char *background_1__1_1709220959[] = {
/* columns rows colors chars-per-pixel */
"34 34 239 2 ",
"   c #0B0200",
".  c #0C0D01",
"X  c #130D01",
"o  c #1A0D00",
"O  c #1A0300",
"+  c #131201",
"@  c #1B1302",
"#  c #1D1A02",
"$  c #121409",
"%  c #1C1A0B",
"&  c #19140B",
"*  c #1B1C13",
"=  c #1A1916",
"-  c #16100A",
";  c #240B00",
":  c #221302",
">  c #241C0B",
",  c #261906",
"<  c #241C14",
"1  c #2A1B15",
"2  c #261C1B",
"3  c #2B1D1B",
"4  c #26151B",
"5  c #1E200C",
"6  c #2A220D",
"7  c #282405",
"8  c #242115",
"9  c #2B2215",
"0  c #24241C",
"q  c #2B241B",
"w  c #242819",
"e  c #2C2B1C",
"r  c #2C2914",
"t  c #32241B",
"y  c #32291C",
"u  c #372B15",
"i  c #39321C",
"p  c #271F23",
"a  c #2A2721",
"s  c #2C2B23",
"d  c #292726",
"f  c #342C23",
"g  c #372B27",
"h  c #36342C",
"j  c #3D342B",
"k  c #3C3B2C",
"l  c #363224",
"z  c #383733",
"x  c #2A3121",
"c  c #4D3500",
"v  c #5E3E01",
"b  c #462F12",
"n  c #733C13",
"m  c #67390D",
"M  c #412F2C",
"N  c #4B2E28",
"B  c #42332D",
"V  c #4D312D",
"C  c #433A2C",
"Z  c #4B3C2C",
"A  c #553628",
"S  c #422F31",
"D  c #473935",
"F  c #513C3A",
"G  c #623D29",
"H  c #643F36",
"J  c #3F4133",
"K  c #594616",
"L  c #4C4114",
"P  c #664609",
"I  c #6D491C",
"U  c #5B452B",
"Y  c #594826",
"T  c #4B4337",
"R  c #5D4934",
"E  c #564B3D",
"W  c #5B4B3C",
"Q  c #584435",
"!  c #504C36",
"~  c #64422C",
"^  c #654527",
"/  c #724726",
"(  c #64502D",
")  c #6C532B",
"_  c #644333",
"`  c #634C34",
"'  c #614439",
"]  c #614A3C",
"[  c #6A4838",
"{  c #665435",
"}  c #78503C",
"|  c #4D4542",
" . c #4A4944",
".. c #5C4C44",
"X. c #524A45",
"o. c #565344",
"O. c #5C5245",
"+. c #5D534A",
"@. c #58564A",
"#. c #5A5657",
"$. c #4F4D50",
"%. c #644C41",
"&. c #674F47",
"*. c #625345",
"=. c #6C5245",
"-. c #64534A",
";. c #6C504A",
":. c #695D4C",
">. c #725746",
",. c #655953",
"<. c #686449",
"1. c #65635A",
"2. c #796242",
"3. c #645F65",
"4. c #686364",
"5. c #8D680F",
"6. c #8D6914",
"7. c #8C691B",
"8. c #8C6619",
"9. c #926C15",
"0. c #926B1C",
"q. c #94701C",
"w. c #814B26",
"e. c #895D3D",
"r. c #865A37",
"t. c #8F6622",
"y. c #8D6A25",
"u. c #916B21",
"i. c #946724",
"p. c #937027",
"a. c #8A6634",
"s. c #9A6D36",
"d. c #99763A",
"f. c #A37322",
"g. c #A7772B",
"h. c #A66C37",
"j. c #A96D37",
"k. c #AD7535",
"l. c #AB723A",
"z. c #A47C3B",
"x. c #AA7E3D",
"c. c #A47235",
"v. c #B07734",
"b. c #B27938",
"n. c #A46A2A",
"m. c #8A5C42",
"M. c #885E48",
"N. c #8E6444",
"B. c #936A4C",
"V. c #8B7948",
"C. c #967344",
"Z. c #9D7B48",
"A. c #887B56",
"S. c #9A7B58",
"D. c #946553",
"F. c #A56D44",
"G. c #AD7D42",
"H. c #AE7B4B",
"J. c #A9794D",
"K. c #B17946",
"L. c #AD7952",
"P. c #AB7757",
"I. c #A06C57",
"U. c #AF7B63",
"Y. c #AE8039",
"T. c #99845B",
"R. c #AC8347",
"E. c #A48358",
"W. c #B38558",
"Q. c #B18048",
"!. c #A7A655",
"~. c #A6A459",
"^. c #ABA757",
"/. c #938C68",
"(. c #96956D",
"). c #9B9B75",
"_. c #969579",
"`. c #989574",
"'. c #868566",
"]. c #B18462",
"[. c #A39A75",
"{. c #B9B97C",
"}. c #ADA86A",
"|. c #C1B87F",
" X c #ECDC6E",
".X c #E4D66D",
"XX c #F2DC6D",
"oX c #E7CD73",
"OX c #EDDE73",
"+X c #EED37B",
"@X c #E9D977",
"#X c #F4D37B",
"$X c #F3D976",
"%X c #E7CD6C",
"&X c #ECE36D",
"*X c #E4E063",
"=X c #EDE374",
"-X c #ECE57B",
";X c #EBE77A",
":X c #F3E67C",
">X c #FCE47B",
",X c #F3E877",
"<X c #F3EF71",
"1X c #BCBC83",
"2X c #BAB78C",
"3X c #C5BE84",
"4X c #C3BF92",
"5X c #BEC081",
"6X c #C4C28A",
"7X c #C2C097",
"8X c #D4C79B",
"9X c #E7DC87",
"0X c #F5DC83",
"qX c #F8DD88",
"wX c #E8DB97",
"eX c #F5DC95",
"rX c #EBCF85",
"tX c #E6E282",
"yX c #E9E485",
"uX c #EAE38B",
"iX c #FCE583",
"pX c #FAE18B",
"aX c #FAEB87",
"sX c #EAE298",
"dX c #F3E294",
"fX c #FEE993",
"gX c #F9E699",
"hX c #F9E69A",
"jX c #DDD2A8",
"kX c #EFDFAA",
"lX c #EBE3AA",
"zX c #F5E8AE",
"xX c #FCECA7",
"cX c #FFF5AF",
"vX c #EFE5B2",
"bX c #F3E9B2",
"nX c #F6E9B6",
"mX c #FFF7BA",
"MX c #FFF5C2",
/* pixels */
"4 & X - * + . $ * . * $ % $ @ X , o - X & a $ * . X @ X , ; ; A B.].",
"p 4 < 2 q < * w s * a * e w < % < 1 3 a * < . s $ X o . O ; ; b C.].",
"M S B B C C T J l * a < h k C l g z z | a q % 1.<.:.A.A.V.V.a.S.C.].",
"F %.O.W o.W o.O.E q s 1 T +.:.o.+.,.$.,.z s > _.7X4XnXmXcXcXxXeXa.W.",
"T -.-...W ..*.*.-.t q 3 O.,.,.T 4.1.$.#.h = X ).7X}.sXsXyXuXyX@Xy.R.",
"Z O.*...E ..E ....1 1 > +.+. .a h z z J d *   (.7X}.uXtX=X=X:X.X7.G.",
"C E +.X.........&.1 t 9 ,.+. .a = = = 0 x 0 X [.|.^.tX;X;X&X<X=X8.Y.",
"J o.-.+.#.,.;.,.:.t t 1 ,.X.| a d x d = h 0 X [.3X^.tX=X<X*X<X&X8.x.",
"e z w g d 4 g 4 t , 9 t C f D < w e * e a < O `.3X^.9X=X<X&X<X.X7.x.",
"5 x = 0 d = p p B t o o , , t > % > % f g 9 , [.3X^.tX-X;X=X,X@X8.x.",
"0 d = = d p 2 j   u , , o : : : u 7 > f 3 & X /.3X^.0X@X:XOX:X+Xt.G.",
"z  .$.$.#.$.0 e i jXnXwXS./.S.S.A.2.W *.B q > [.3X^.yX-X:X:X:X#Xt.G.",
"T #.3.3.3.3.< % + lXMXlXa.Z.C.S.E.2.` *.j > o /.5X~.-X-X:XOXiX0X8.K.",
"k  .D D | #.r 7 # wXwX9Xu.z.c.H.S.2._ =.F 3 o (.5X!.tX-X=XXX0X#Xt.K.",
"1 t g X.$.,.l 7 7 sXdXpXq.g.c.s.J.m._ %.F 1 X ).5X!.-X=X,XXX>X#Xi.G.",
"t 1 & | $.+.q # X wXfXpX6.g.b.k.W.N.~ ' F 1 . ).5X!.-X<XXXXX>X#X8.x.",
"q s w k ! o.x i # zXsXpXq.g.k.j.G.r.^ =.M 3 X ).{.!.;X;X&XXXiX#X7.G.",
"q w 5 5 w x % 5 + vXdXpXq.g.k.j.Q.a.^ } M 2 X _.{.!.;X,X&X XiX+X7.x.",
"q a 5 5 * w + 5 + vXhXpX7.f.v.j.K.r.^ &.S 2 X _.5X~.yX;X=XXXiX+Xt.G.",
"g D x J J J w x + bXgXpX6.f.b.j.Q.e.~ =.S 2 . _.1X~.yX;X=X=XiX+Xt.G.",
"D X.+.o.o.@.x r + bXgXiX9.f.v.k.H.m.~ ;.S 3 X _.1X~.uX:XOXOXiXrXt.G.",
"T +.+.O.O.@.i 6 X bXgXqX5.f.v.j.L.e._ ;.S 3 . `.2X~.uX-X=X$XaX#Xy.Y.",
"D ..O.W o.@.f r X zXgXqX5.f.v.j.L.e._ ;.M 1 . _.1X~.uX-X=XXXiX$Xy.R.",
"V +.*.W E O.y 6 O zXfX0X5.f.b.j.L.m.G ;.M 1 . (.1X~.yX-X:X=X>XoXy.Y.",
"F -.W E T ,.9 6 ; nXhX0X9.g.n.l.U.r.G >.i 6 + (.1X!.tX=X=X X>X Xq.Y.",
"V &.%.] W :.y 6   nXeX0X9.Y.j.h.K.e.[ >.i > . (.5X^.yXyX:XOX>X%X) Y.",
"V &.] W E -.9 > o MXhXqX5.g.K.K.L.N.^ { M : + ).6X~.tX-X.X X>X$X7.Y.",
"V &.W W W %.i 9 ; nXwXfXu.f.l.F.P.m.G ` Z , . (.{.~.uXuX@X>XaXoX7.Y.",
"V ;.] W *.+.j u : vXwXeXi.h.K.F.P.N.H } Q # . (.2X~.9XuX@X0XiXoXp.R.",
"N ;.W R *.T y > @ vXcXeXi.i.K.P.U.D.[ ] Z X # ).7X{.sXdX9XfXfXqXp.d.",
"A ;.R W *.T g 9 i 8XnXeXR.z.L.P.I.M._ ' T 7 r '.2X1XlXxXgXfXrXrXs.Z.",
"A >.` ` :.*.O.E b { K P v P n G } } H =.*.T i E Y L K c c P P P J.L.",
"( U U U U E R { R Y K K K ) ^ ^ _ [ ' ' Q &.*.=.U ( ^ / I I m n K.W.",
"( ( ( R _ R ` ` { ( ( Y ( ` Y ` _ %.' %.Q &.%.=.U ~ ^ / / / n w.L.U."
};
