/* XPM */
static char *background_1__2_1709221091[] = {
/* columns rows colors chars-per-pixel */
"34 34 241 2 ",
"   c #040101",
".  c #0A0302",
"X  c #040803",
"o  c #0B0E07",
"O  c #150A06",
"+  c #15120E",
"@  c #1C120D",
"#  c #1C1905",
"$  c #130F11",
"%  c #0E1313",
"&  c #1B1515",
"*  c #171716",
"=  c #0B1009",
"-  c #251A15",
";  c #231B1B",
":  c #271A15",
">  c #2C1A0C",
",  c #1E231D",
"<  c #28231B",
"1  c #31241C",
"2  c #3A3204",
"3  c #221D23",
"4  c #1F2324",
"5  c #2B2323",
"6  c #2C2B2A",
"7  c #272525",
"8  c #342A27",
"9  c #393229",
"0  c #312F35",
"q  c #373633",
"w  c #2F312C",
"e  c #4D340B",
"r  c #553C18",
"t  c #533915",
"y  c #47382B",
"u  c #543B24",
"i  c #463C35",
"p  c #523F31",
"a  c #77591A",
"s  c #644D1A",
"d  c #77700E",
"f  c #5C452C",
"g  c #524528",
"h  c #42413C",
"j  c #4F4335",
"k  c #524335",
"l  c #584738",
"z  c #674C2B",
"x  c #695428",
"c  c #765727",
"v  c #624B33",
"b  c #664D38",
"n  c #65533B",
"m  c #685635",
"M  c #735938",
"N  c #7B6422",
"B  c #776437",
"V  c #6F662B",
"C  c #4A4A43",
"Z  c #494A49",
"A  c #544B45",
"S  c #5D4F42",
"D  c #504B48",
"F  c #5A5149",
"G  c #5A5452",
"H  c #565758",
"J  c #4C5250",
"K  c #645243",
"L  c #675649",
"P  c #645D59",
"I  c #6E5640",
"U  c #62625B",
"Y  c #766655",
"T  c #776347",
"R  c #5F6362",
"E  c #65696B",
"W  c #6A6C6C",
"Q  c #666667",
"!  c #6F7575",
"~  c #7D7C7C",
"^  c #777875",
"/  c #73706C",
"(  c #866C10",
")  c #835D2A",
"_  c #896828",
"`  c #936924",
"'  c #9A732E",
"]  c #866934",
"[  c #877436",
"{  c #947538",
"}  c #906538",
"|  c #A17A37",
" . c #845F42",
".. c #946C49",
"X. c #8A7445",
"o. c #977748",
"O. c #9D7C50",
"+. c #897259",
"@. c #A27851",
"#. c #988334",
"$. c #AC8E30",
"%. c #928C12",
"&. c #9B8346",
"*. c #96924C",
"=. c #AC9846",
"-. c #A58A57",
";. c #A89755",
":. c #B69A56",
">. c #AE8B49",
",. c #AEA543",
"<. c #B8AC4B",
"1. c #B4A35C",
"2. c #B8A659",
"3. c #BBB35C",
"4. c #AFAA57",
"5. c #988763",
"6. c #81847D",
"7. c #9B8671",
"8. c #BA9979",
"9. c #AD8F65",
"0. c #ABA965",
"q. c #BBAA63",
"w. c #BAA464",
"e. c #BAB768",
"r. c #BBB779",
"t. c #C4A856",
"y. c #C3B354",
"u. c #C6A767",
"i. c #C8B66B",
"p. c #D7B56C",
"a. c #C8A772",
"s. c #C7B875",
"d. c #D4C668",
"f. c #D5D068",
"g. c #CAC577",
"h. c #D5C67A",
"j. c #DBD278",
"k. c #C9C36B",
"l. c #E7D96D",
"z. c #E6C57A",
"x. c #E4D775",
"c. c #F5D67B",
"v. c #F6E578",
"b. c #F0E86F",
"n. c #7A7D81",
"m. c #898987",
"M. c #8F938C",
"N. c #949692",
"B. c #9B9896",
"V. c #9C9999",
"C. c #B69982",
"Z. c #A59590",
"A. c #ACA897",
"S. c #A4A2A1",
"D. c #A9A6A5",
"F. c #B2B7AD",
"G. c #BEBEBB",
"H. c #B0AFAC",
"J. c #DBBB85",
"K. c #D4BA9A",
"L. c #C9B190",
"P. c #DAC485",
"I. c #D9D188",
"U. c #DED39D",
"Y. c #EDDB86",
"T. c #FEDC95",
"R. c #FFDB9A",
"E. c #F8D994",
"W. c #EED192",
"Q. c #ECE688",
"!. c #FFE18E",
"~. c #FAE484",
"^. c #FCF486",
"/. c #EEE897",
"(. c #FEEC91",
"). c #F5E39A",
"_. c #F7E797",
"`. c #FAF497",
"'. c #C4C3BE",
"]. c #CCC6BA",
"[. c #D4CCBF",
"{. c #FCDEA2",
"}. c #F6DDB7",
"|. c #E7D9AE",
" X c #FCEDA2",
".X c #F6E6AD",
"XX c #FFF7B0",
"oX c #BDBDC7",
"OX c #CCBFC6",
"+X c #BFC5C9",
"@X c #BFC7D2",
"#X c #C4C5C3",
"$X c #CAC5C3",
"%X c #C6CAC5",
"&X c #CBCAC6",
"*X c #C9C7C8",
"=X c #C5CBCB",
"-X c #CCCCCB",
";X c #C7C2C9",
":X c #D1CCCC",
">X c #D6CCCA",
",X c #CED1CC",
"<X c #CBD1C7",
"1X c #D3D2CE",
"2X c #DFD4C0",
"3X c #CEC6D2",
"4X c #C7CAD0",
"5X c #D2CBD2",
"6X c #CED3D3",
"7X c #CBD2D9",
"8X c #D3D3D2",
"9X c #D6DBD4",
"0X c #DAD9D6",
"qX c #DCDBDA",
"wX c #D6D4D7",
"eX c #E7DDD3",
"rX c #ECD6C8",
"tX c #FEEBCB",
"yX c #E1E5DD",
"uX c #FEE8D8",
"iX c #FEF4DD",
"pX c #FDF8D7",
"aX c #F6EACC",
"sX c #DFDFE1",
"dX c #E0DAE4",
"fX c #EAE9E9",
"gX c #FAEDEC",
"hX c #EFFCED",
"jX c #F2F1EE",
"kX c #FFF3EB",
"lX c #F2FAEC",
"zX c #FFF7E5",
"xX c #FBEEF8",
"cX c #F4F4F3",
"vX c #FBF6F5",
"bX c #F5FBF3",
"nX c #FBFEF4",
"mX c #F6F6F9",
"MX c #FBF3FC",
"NX c #F7FBFA",
"BX c #FDFDFD",
/* pixels */
"%X%X&X&X'.&X1X'.BXvXBXvXuXzX}.{ ` ` ' } 8.vXMX;X7X=X4X7X4X7X=X<X-X,X",
",X,X1X1X&X,X1X&XjXnXBXkX7.5.8.J.R.p.' _ L.gXvXdX#X#X=X6X@X7X<X=X-X,X",
"&X&X$X$X$X$X'.$XNXnXpXaXX.] o.{.R.z.` ) K.gXgXOX8X&X1X-XoXwX1X<X,X,X",
"5XwX&X-X8X&X$XeXzXpXpXXX#.N { E.R.T.| c 8.uXxX>XeX>XeX0X;X6X%X%X-X-X",
"3X:X$X$X>X>X;X>XzX5.V #.Y.(.z.p.t.:.a _ L.tXkXC.Y Y A.$X5XwX>X1X1X,X",
"3X5X&X>X1X>X5X>XfX&.d d b.v.Y.i.u.u.` { 8.tXgXC.+.T K.rXwX5XOX$X%X%X",
"3X-X>X<X&X-X5X3XpX0.( %.b.^.Y.4.:.w._ { J.tXtX8.O.B K.rX>X5X:X>X,X<X",
"BXBXnXnXvXBXBXgXeX.X^.b.b.l.j.e.:.W.).R.p.o.] ..O.X.}.iXkXMXBXnXNXnX",
"BXNXhXlXnXcXBXmX2XU.x.v.l.^./.r.;.e. XY.P.a { ..N ] |.pXnXMXBXBXlXlX",
"NXBXnXbXhXNXqX8XA.|.Q.^.f.f.I.0.0.e././.s.&.-.;.1.;.r.|.].BXjXBXnXnX",
"BXNXlXbXhXNXH X O L. X(.,.,.r.r.0.4.Q./.i.q.s.P._. Xs #   BXNXNXnXnX",
"BXBXNXnXyXnXG O O K.XXY.e.e.0.*.e.e.`.Q.j.3.q.h. X X2 o . BXNXNXnXnX",
"MXBXcX9XS.F.U 9 > a.W.a.u.u.4.g.g.k.j.f.h.2.=.h./.XXx 2 1 B.D.S.nXnX",
"MXBXmXM.X X 9 S u  ...) w.i.3./.`.j.,.,.4.3.1.I.XX/.V m l o + & vXnX",
"MXBXxXB.X # j m M @.@.} a.2.<.Q.`.x.<.<.$.4.i.g././.X.g F ; 5   nXvX",
"MXMXBXS.X < g v u ..@.} W.z.d.<.y.<.l.l.d.i.W.i.1.q.V u L 5 5 O BXBX",
"BXBXBXV.. @ p v z ..@.o.R.T.z.( ( $.v.v.~._.E.:.[ { z g Y - 3 & BXBX",
"mXvXMXD.O 1 S l f ..@.@.{. XT.$.( $.~.(.(.!.T.u.o.o.m n L i O . BXMX",
"MXBXBXV.. O i K f M c s >.>.>.` ` =.!.!.p.#.:.N c M M g k - ; 3 BXBX",
"mXBXBXS.O ; p K b b r t ..} ' O.` >._.).s.a O.c e z u L P 5 &   NXNX",
"BXBXNXm.  O 8 S l v v z @.O.O.-.*.w.{..XP.X.9.B z f K S A . & $ BXBX",
"cXcXBXBXgXvX/ : 1 p I v M z M z t e x x M r m t f L y @ - MXMXfXmXmX",
"9X<X-X%X0XfXG . : y L l u u v v T n v g v l n l Y k i O . *X*XfXwXwX",
"=X,X6X#X5XwXD & y 8 A L L K K K p l L j S S K S j i 9 ; + -X=X4X=X=X",
"=X<X%X-X9XfX'.0XfXL @ & : @ 1 > @ ; ; & 8 & ; 6 ; 8 H.jX*X8XsX=X,X5X",
"=X8X=X%X#X8X$XfXMXG   5 ; 9 8 8 & 5 5 & 6 5 ; 3   + B.jXwX-X-X-X-X4X",
"%X,X-X=X-X6X#XqXqXW w U . @ + q 3 0 0 3 5 * X h Z q V.wX-X&X,XwX-X-X",
"-X<X%X-X8X8X#X*XBXcXvXBXq w 0 ^ n.n.n.n.H 6 % m.BX8XsXwX#X,X8X=X=X5X",
"*X8X-X=X&X#X&X:XBXBXBXjXX = * W Q Q E n.J %   V.NX6X8X-X#X1X1X,X5X5X",
"-X-X&X&X1X=X8X#XjX-X1XyXw w 7 W Q E E n.J 4 % n.#XS.%XyX6X#X'.-X:X:X",
"-X*X&X-X0X1X9XG.hXM.^ ^ = = * ~ W ! E ! Z % X J ~ W H.9X-X].].8X-X:X",
"-X5X5X&X&XG.qX1XnXN.6.6.q < 3 R E E R ! J * , R m.6.'.yX,X1X1X&X:X:X",
"&X-X&X-X1X0XF.N.%XU C D C h h W / E U ! J q h h U h N.D.m.0X:X$X3X3X",
"-X-X-X-X%X%XN.W ^ , = < h A l ^ / W R ~ Q j h q + X R +.W 6X:X:X:X:X"
};
