/* XPM */
static char *grass21709219750[] = {
/* columns rows colors chars-per-pixel */
"34 34 166 2 ",
"   c #1B4D00",
".  c #235300",
"X  c #2C5B00",
"o  c #275E0C",
"O  c #315F05",
"+  c #2F6304",
"@  c #2C610C",
"#  c #336304",
"$  c #3C6602",
"%  c #356907",
"&  c #3B6905",
"*  c #32670F",
"=  c #386508",
"-  c #366A0C",
";  c #3A6B0B",
":  c #3D710E",
">  c #2C6314",
",  c #2D661C",
"<  c #376D11",
"1  c #3C6E13",
"2  c #356B1C",
"3  c #396E1B",
"4  c #3F7211",
"5  c #3C741C",
"6  c #276220",
"7  c #296424",
"8  c #336C24",
"9  c #336E2B",
"0  c #397126",
"q  c #36712A",
"w  c #3B7632",
"e  c #436E0F",
"r  c #4B7308",
"t  c #46780C",
"y  c #426F11",
"u  c #427413",
"i  c #497616",
"p  c #437219",
"a  c #4A761A",
"s  c #437A1F",
"d  c #527F1C",
"f  c #4E7D24",
"g  c #557D22",
"h  c #417A34",
"j  c #427C3A",
"k  c #54811B",
"l  c #4D822B",
"z  c #518527",
"x  c #588721",
"c  c #5C8A24",
"v  c #52862A",
"b  c #578B2C",
"n  c #5E8C2A",
"m  c #498233",
"M  c #508638",
"N  c #538A39",
"B  c #5E9236",
"V  c #59903D",
"C  c #60912D",
"Z  c #69952E",
"A  c #649431",
"S  c #699533",
"D  c #669837",
"F  c #6C9933",
"G  c #619539",
"H  c #6B9B3A",
"J  c #71A23C",
"K  c #77AA3D",
"L  c #548E43",
"P  c #5B9348",
"I  c #6B9F43",
"U  c #7BA343",
"Y  c #7BAB4E",
"T  c #6FA551",
"R  c #7EAC52",
"E  c #7CB25D",
"W  c #81AD44",
"Q  c #81AE49",
"!  c #83B34C",
"~  c #88B84A",
"^  c #93BD4F",
"/  c #8ABC57",
"(  c #87B958",
")  c #8CBE5E",
"_  c #89BA62",
"`  c #9DC64D",
"'  c #96C153",
"]  c #9CC455",
"[  c #9ECC55",
"{  c #96C45B",
"}  c #9DC65B",
"|  c #97C85E",
" . c #9DCA5C",
".. c #A3C64E",
"X. c #A1C656",
"o. c #A4CA56",
"O. c #ABCD54",
"+. c #A1C65A",
"@. c #A6CC5C",
"#. c #A8CE5D",
"$. c #A7D055",
"%. c #A8D054",
"&. c #A4D25D",
"*. c #ABD15D",
"=. c #ACD85E",
"-. c #B4DB5D",
";. c #93C566",
":. c #9BC562",
">. c #9DCC63",
",. c #94C66C",
"<. c #95C96E",
"1. c #9CCC6A",
"2. c #9FD064",
"3. c #99CC74",
"4. c #96CD7B",
"5. c #97D07F",
"6. c #9FD47E",
"7. c #A2C762",
"8. c #A4CD62",
"9. c #AACE61",
"0. c #A3CE6A",
"q. c #AACE6B",
"w. c #A4D263",
"e. c #ABD262",
"r. c #ACD964",
"t. c #A4D36C",
"y. c #ABD46A",
"u. c #A7DA6B",
"i. c #ABDA6C",
"p. c #B1D465",
"a. c #B0D867",
"s. c #B2D66B",
"d. c #B3DB6C",
"f. c #A4D473",
"g. c #AAD573",
"h. c #A7DA74",
"j. c #ACDC72",
"k. c #A1D57C",
"l. c #A8D77B",
"z. c #A4D979",
"x. c #ACDD7C",
"c. c #B1DB72",
"v. c #B8DB75",
"b. c #B1D57A",
"n. c #B2DB7C",
"m. c #B8DE79",
"M. c #AEE16E",
"N. c #ADE17D",
"B. c #B3E27B",
"V. c #B8E57D",
"C. c #A4D982",
"Z. c #ACDB82",
"A. c #A6DC8B",
"S. c #B1DE83",
"D. c #AAE18A",
"F. c #B3E483",
"G. c #B6E887",
"H. c #B9E982",
"J. c #B0E58C",
"K. c #A6E196",
"L. c #AFE594",
"P. c #B5EE9A",
"I. c #BDF194",
"U. c #C9EF81",
"Y. c #C8F88A",
"T. c #CAF196",
/* pixels */
"@.#.#.#.*.#.p.e.9.p.p.p.9.q.y.&.2.u.h.1._ / +.r.w.| 2.h.: % i N.0.:.",
"#.#.#.@.@.#.@.@.+.9.q.7.+.#.@.+.[ u.>.H ; X ~  .2.2.2.N.4 4 u N.y.t.",
"#.#.#.#.#.O.O.O.9.O.+.+.+.#.#.@.@.j.h.F X . { j.u.h.1.z.% % 4 F.h.t.",
"@.#.#.@.#.*.*.*.O.9.O.O.9.p.p.9.} 9.q.U g n Q / Y u.h.N.: u : N.f.>.",
"@.#.#.#.#.9.O.O.*.*.*.p.p.p.#.#.+.9.m.b.b.T.i # # ( h.6.+ : - N.j.>.",
"#.@.#.#.#.O.O.O.O.*.*.*.O.@.9.s.e.+.y.q.q.S.c O + <.G.h.% - 4 u.j.w.",
"#.#.#.#.#.O.*.*.#.#.9.#.@.+.@.#.@.@.9.7.9.q.Q c c 1.t.f.C A J w.e.w.",
"@.#.#.#.9.O.*.*.#.+.9.q.p.q.e.&.@.e.w.@.9.s.c.j.j.M.{ V.j.V.w.j.{ 9.",
"#.#.#.#.#.@.] r.8.i.c.} c.i.y.@.[ &.&.w.r.[ ' &.d.' ^ w.8.w.i.y.^ s.",
"#.#.#.@.#.#.' u.t.t.>.S F S y.8.&.&.[ [ [ $.o.o.=.r.e.o.9.9.+.s.9.s.",
"#.#.#.9.#.&.w.2.>.f.1.O X & B.0.w.M.&.[ &.[ =.....#.a.o.v.] 9.s.9.9.",
"#.#.#.@.#.&.u.2.| t.n.y - d B.7.2.M.M.M.M.&.r.@.d.*.a.*.U.+.] 9.7.s.",
"@.#.#.#.#.w.w.u.w.1.f.y = y U.3.Y t t K u.0.w.] *.d r d s.s.y.s.} ^ ",
"#.#.@.#.#.#.[ [ w.j.0.; O a b.S.~ + + J x.1.0.| v.d e $ :.t.q.7.9.d.",
"#.#.#.#.#.@.=.$.[ y.{ & = p S.S.Y . # H l.S.l.g.m.a y $ g.f.g.| 0.t.",
"9.@.9.@.@.*.` =.&.e.i.7.g.0.) Z.F.f.Z.R f . _ k.Z.p 1 O S.f.0.0.h.! ",
"@.9.9.@.9.&.r.w.@.X.+.p.q.9.s.7.7.q.S.A X   T A.L.V o 3 C.3.,.<.x.) ",
"e.@.9.9.@.@.e.@.@.9.#.O.O.p.+.#.i.i.m.F u < 5.K.C.m > m 4.A.C.J.k.Y ",
"@.@.9.#.#.9.@.@.@.y.#.o.X.9.#.p.e.' t.>.h.I., 9 7 q 8 0 > > @ @ . b ",
"@.*.#.#.&.@.+.w.r.@.@.#.#.O.o.9.9. .y.>.1.z.P w 6 w w q 8 > < 5 < z ",
"9.@.*.@.#.#.@.w.e.@.o.*.*.O.e.*.@.o.w.w.t.F.L 9 6 j 9 , P M N * < b ",
"#.#.#.#.#.&.y.@.o.9.e.@.@.*.#.*.e.e.w.] @.N.M 9 9 h 8 0 A.L.k.1 + n ",
"#.&.*.@.*.@.e.@.@.#.e.@.O.*.*.*.w.*.@.w.i.H.l 2 2 2 o 3 3.D.3.; . x ",
"#.*.@.*.@.e.+.e.9.@.@.*.*.o.o.*.#.&.&.*.&.w.D v B G G I ,.1.;.H c W ",
"@.*.*.*.*.@.&.*.@.9.@.#.#.#.*.O.o.*.*.@.o.e.Y.i.B.h.t.t.N.0.y.t.i.s.",
"*.@.@.#.@.@.@.e.@.e.@.#.O.#.#.&.o.&.*.@.o.*.X.X.&.*.r.w.u.t.8.} d.t.",
"*.#.@.@.@.*.@.e.@.9.@.#.@.#.#.#.&.*.*.#.o.*.O.-.%.[ =.o.] } e.{ e.9.",
"*.#.@.@.#.#.@.#.@.*.@.e.@.#.#.*.o.#.e.&.o.*.O.-.%...=.*.y.c.i.e.@.7.",
"@.@.@.#.@.@.@.#.o.e.@.9.@.9.#.#.#.#.e.#.#.*...O.*.@.#.p.w.y. .B. .e.",
"@.@.#.9.@.@.#.*.@.e.o.#.@.@.9.e.@.@.9.9.+.*.p...*.#.y.t.Z k n c.| u.",
"@.#.@.@.@.@.#.#.@.#.@.#.@.9.7.e.9.@.9.9.#.9.q.@.p.7.b.g.; X & h.>.w.",
"e.9.9.9.9.e.#.*.@.#.@.w.@.9.@.9.9.@.9.9.#.9.+.q.v.} g.g.# 4 5 F.N.6.",
"@.X.9.e.#.9.@.p.] o.r.o.p.o.*.#.#.*.#.#.#.#.9.p.d.+.7.F.+ u s C.6.E ",
"e.@.9.+.] 9.#.e.p.#.*.` #.*.@.@.@.@.#.#.9.#.+.O.o.#.t.F.# < 5 D.P.E "
};
