/* XPM */
static char *grass11709219750[] = {
/* columns rows colors chars-per-pixel */
"34 34 206 2 ",
"   c #184C00",
".  c #1B5D0B",
"X  c #204900",
"o  c #255400",
"O  c #2B5600",
"+  c #245C02",
"@  c #2C5C01",
"#  c #265E0A",
"$  c #315D00",
"%  c #385F00",
"&  c #2D6204",
"*  c #2D630D",
"=  c #326401",
"-  c #3A6503",
";  c #3A6A02",
":  c #33650C",
">  c #336A0C",
",  c #3C6C0C",
"<  c #3C710F",
"1  c #256515",
"2  c #2D6913",
"3  c #2C6A1B",
"4  c #346B13",
"5  c #376B16",
"6  c #3A6E13",
"7  c #3F6619",
"8  c #346D1B",
"9  c #2E701F",
"0  c #3A7214",
"q  c #34721D",
"w  c #3B731B",
"e  c #2F7423",
"r  c #357321",
"t  c #3B7522",
"y  c #3D7A25",
"u  c #377628",
"i  c #447207",
"p  c #46740E",
"a  c #437413",
"s  c #487516",
"d  c #4A7A17",
"f  c #44761A",
"g  c #427919",
"h  c #4C7C1B",
"j  c #496A2D",
"k  c #447E23",
"l  c #457D26",
"z  c #4B6C30",
"x  c #3E8231",
"c  c #4A811F",
"v  c #5A8815",
"b  c #52811D",
"n  c #5B851B",
"m  c #61901D",
"M  c #448123",
"N  c #4B8223",
"B  c #598622",
"V  c #538824",
"C  c #5B8823",
"Z  c #52852B",
"A  c #578B2C",
"S  c #5C8E2D",
"D  c #5E9129",
"F  c #478439",
"G  c #538A30",
"H  c #638D2A",
"J  c #63902B",
"K  c #679234",
"L  c #699A36",
"P  c #6C9B3B",
"I  c #709534",
"U  c #759E3B",
"Y  c #599542",
"T  c #6E9B41",
"R  c #6F9A49",
"E  c #7A985B",
"W  c #7DA944",
"Q  c #77A749",
"!  c #73A350",
"~  c #7CB25D",
"^  c #85B54D",
"/  c #88B74D",
"(  c #87B956",
")  c #8CBD59",
"_  c #91BD56",
"`  c #92BF59",
"'  c #9ABF5B",
"]  c #B1B54C",
"[  c #B6BE5A",
"{  c #93BD66",
"}  c #97B777",
"|  c #C9BB63",
" . c #99C146",
".. c #95C34D",
"X. c #9FC34E",
"o. c #8EC55E",
"O. c #93C355",
"+. c #9CC454",
"@. c #9DCA56",
"#. c #95C35C",
"$. c #9BC55B",
"%. c #9DCB5C",
"&. c #9FD55B",
"*. c #A0C34C",
"=. c #ABC34F",
"-. c #A3C555",
";. c #A4CA55",
":. c #A9CD55",
">. c #A2C65B",
",. c #AEC558",
"<. c #A3CC5C",
"1. c #A9CD5D",
"2. c #B1C953",
"3. c #BAC659",
"4. c #B4CE58",
"5. c #A6D257",
"6. c #AAD156",
"7. c #A4D25D",
"8. c #ABD35D",
"9. c #AFD85F",
"0. c #B2D35C",
"q. c #B7D55F",
"w. c #8DC363",
"e. c #8EC66C",
"r. c #95C664",
"t. c #9BC661",
"y. c #9DCC62",
"u. c #9CCD6A",
"i. c #9ED364",
"p. c #9ED06A",
"a. c #89C571",
"s. c #93CC73",
"d. c #9CCD72",
"f. c #90CE79",
"g. c #9ED173",
"h. c #9CD379",
"j. c #A3C563",
"k. c #ABC564",
"l. c #A4CD63",
"z. c #AACD63",
"x. c #A4CE6A",
"c. c #ABCD6A",
"v. c #B1CB64",
"b. c #B8CB67",
"n. c #A4D264",
"m. c #AAD364",
"M. c #A2D865",
"N. c #ACD963",
"B. c #A5D36B",
"V. c #ACD46B",
"C. c #A6D96C",
"Z. c #ACDA6C",
"A. c #B2D563",
"S. c #BAD062",
"D. c #B2D962",
"F. c #B1D56C",
"G. c #BED26A",
"H. c #B2DB6C",
"J. c #A9CD74",
"K. c #B9CD75",
"L. c #B6C878",
"P. c #B4CA7C",
"I. c #A4D571",
"U. c #ABD672",
"Y. c #A5DA73",
"T. c #ABDB74",
"R. c #A2D67B",
"E. c #A7DA7E",
"W. c #ACDD7C",
"Q. c #BCD475",
"!. c #B3DB73",
"~. c #B9DB74",
"^. c #B5D47A",
"/. c #B2DD7C",
"(. c #B2E165",
"). c #B4E16C",
"_. c #ADE27D",
"`. c #B3E175",
"'. c #BBE374",
"]. c #B4E47C",
"[. c #B9E47C",
"{. c #BDEA7E",
"}. c #C4C368",
"|. c #D7C76F",
" X c #C6D46B",
".X c #CECE75",
"XX c #CCCF7C",
"oX c #D8CA73",
"OX c #C2E77E",
"+X c #A4DB82",
"@X c #B7D689",
"#X c #B9D693",
"$X c #ABE48E",
"%X c #B3E482",
"&X c #BAE684",
"*X c #B6E984",
"=X c #BAEA86",
"-X c #B2E78B",
";X c #BBF08E",
":X c #B7EA95",
">X c #C1D086",
",X c #C4D58B",
"<X c #C8DE93",
"1X c #C1E584",
"2X c #D6E295",
"3X c #C3FB9B",
/* pixels */
"W.x.l.c.' j.z.U.H - B s a h ) W.V.O.W p.U.U.t.V.V.c.x.c.z.m.F.k.P.,X",
"@XB.V.U.$.z.F.!.V.T.=XW.&XI.T.W.#.p @ n x.U.x.j.z.V.B.x.V.z.1.k.L.>X",
"_.Y.x.U.<.l.1.>.l.z.B.#.U.x.y.M.O.; @ i !.U.l.1.1.n.l.m.z.z.1.b.K.,X",
"_.C.t.m.m.7.;.A.1.n.F.y.x.y.N.B.m.m v n V.z.1.0.:.>.m.A.<.;.4.k.K.>X",
"`.T.y.7.m.8.;.;.X.:.n.<.B.%.@.7.(.7.(.8.'.7.;.D.6.;.+.;.:.6.q.-.k.L.",
"B.T.n.@.<.8.6.9.:.5.<.@.N.N.M.m.7.8.8.8.:.<.0. .6.D.8.8.N.6.X.S.Q.,X",
"B.M.n.@.;.8.6.6.*.;.<.<.l.%.%.n.@.m.5.N.:.1.:.9.D.<.....<.9.D.>.c.P.",
"Z.#.8.<.<.8.6.:.;.9.m.m.U.N.%.i.&.N.@.:.;.8.;.<.;.n.`.Z.&.%.<.V.P.@X",
"V.+.F.8.H.-.-.0.*.A.z.l.%XB.B.B.N.$.H.+.D.m.<.<.n.B.T.C.C.i.M.U.@X#X",
"V.z.F.+.1.>.D.0.*.F.n.U H H u.x.Y.%.m.+.z.z.H.m.T.^ S N o.`.T.K R E ",
"F.>.z.>.v.>.z.1.-.V.V.h O @ d.d.I.) Z.B.~.+.>.x.T.P + + ~ Y.I.: 7 z ",
"m.<.F.~.'.>.-.N.F.V.&XK : 5 +XR.-XI.W.x.~.>.!./.W.P > + o.%X*X: 7 j ",
"F.>.+.+.j.<.V.>.l.$.U.Z * 4 +Xf.w.h d J /.$.j.t.U.T f < o.C.p.w.{ } ",
"l.z.U.'.~.B.%.m.V.B./.Z : t +X$Xs.w @ , U.V.V.U.[.P o   ( ].T.%X@X#X",
"t.x.B.%.%.Z.).n.B.B.E.Z * r a.$Xs.M < d =XV.$.$.x.U , ; ^ M.$.t.J.@X",
"u.U.^ i = L n.%.z.B.R.G 8 2 Y 8 y & > , W.V.F.B.V.z.$.#.C.Z.V.n.^.<X",
"u.+Xo.a & W Y.<.Z.r.+XG r 3 9 r r 5 k b `.V.+.<.@.n.F.U.n.@.&.B.j.2X",
"-XR.Q 0   L W.%.z.x.&Xl 8 u u F 1 2 > d y.H.8.5.<.m.F.V.l.7.7.1.k.XX",
"*   A ;XW._.i.x.l.Z.=Xg 4 y q 3 k :X3XC.M.7.<.:.<.z.z.j.<.<.7.:.G..X",
"w < N _.u.C.C.i.%.B.T.a : w 0 2 2 h.W.u.B.<.+.<.8.m.c.z.l.m.8.*. X}.",
"4 6 A W.p.i.y.N.N.n.B.D N c c c N Y.I.) V.F.H.@.<.z.v.z.z.7.:.:. X| ",
"6 & S `.`.y.%.$.V.n.!.M._.`.*X_.Y.*XB.y.W.z.+.>.<.k.c.z.1.:.:.=.3.| ",
"6 + B y.n.<.m.$.<.@.m.%.Z.i.C.C.i.y.#.T.!.F.[.N.m.z.c.F.1.0.4.4.[ oX",
"P C W N.m.m.<.8.n.&.m...&.@.%.&.m.n.i.V.W U _ H.7.>.k.k.1.:.4.S.] |.",
"x.V.F.m.z.8.1.<.>.N.7.8.N.N.N.7.M.y.B.` @ o b C.>.V.~.Q.z.-.:.3.[ | ",
"%.F.z.1.1.-.A.H.$.D.X.5.5...<...m.%.[.r.& < L `.N.F.F.c.V.1.:.G.}.oX",
"+.m.<.>.A.-.A.1.$.H.@.N.).:.7.N.Z./ W.r.& 4 S _.B./ H I l.m.;.,.[ }.",
"m.l.<.<.A.1.:.<.;.H.;.1.7.;.<.%.%.y.*Xu.# 4 G _.Y.K X O _ H.-.A.b.|.",
"[.$.m.m.z.:.>.<.>.7.A.m.-.H.~.[.u.%X+Xe.. w Y 3X%XT O o W M.7.;.,.b.",
"U.%.V.n.>.7.8.n.H.%.$.<.>.z.n B b u.s.s.2 9 x c N ! { ( R.Z.7.N.A. X",
"Y.u.B.B.n.7.).l.m.l.<.z.OX!.% $ h +X+Xa.. e e > : R :Xd.g.&.&.5.*.2.",
"-X_.B.Y.T.i.].V.x.!.V.>.B.z.p O h h.-Xf.9 x 9 x 8 ! :Xd.B.M.&.(.;.=.",
"R.+X~ k f f f s W B.x.m.m.'.O.$.t.V w y u 1 x y & T /.' m.@... .;.2.",
"$X:X~ * # 8 : O ^ [.j.x.l.l.n.{.B.= + 0 q 9 q w * Q 1Xz.H.m.(.5.q.2."
};
