/* XPM */
static char *lava1709219751[] = {
/* columns rows colors chars-per-pixel */
"34 34 243 2 ",
"   c #353904",
".  c #582604",
"X  c #4E3B08",
"o  c #57390C",
"O  c #4E2D1C",
"+  c #5D2B15",
"@  c #5B3415",
"#  c #5A361A",
"$  c #662A0A",
"%  c #663507",
"&  c #70320E",
"*  c #622B17",
"=  c #722C15",
"-  c #653214",
";  c #683616",
":  c #6D341B",
">  c #643D1C",
",  c #6B3D1B",
"<  c #713315",
"1  c #74381A",
"2  c #743D1D",
"3  c #5D3D22",
"4  c #5B3E2D",
"5  c #4F3B31",
"6  c #593E34",
"7  c #633421",
"8  c #6B3522",
"9  c #653D23",
"0  c #6C3B23",
"q  c #633629",
"w  c #643B2C",
"e  c #6B3D2B",
"r  c #753522",
"t  c #723D24",
"y  c #7B3C27",
"u  c #71362B",
"i  c #683C35",
"p  c #414117",
"a  c #5B4619",
"s  c #674106",
"d  c #76450C",
"f  c #64510F",
"g  c #67441B",
"h  c #73431C",
"j  c #7C4C1C",
"k  c #5B4223",
"l  c #5C452C",
"z  c #51492F",
"x  c #56482D",
"c  c #544737",
"v  c #5C4434",
"b  c #5D4C33",
"n  c #5C453D",
"m  c #5B4A3B",
"M  c #595035",
"N  c #654124",
"B  c #6B4223",
"V  c #63422D",
"C  c #6B432C",
"Z  c #654B2B",
"A  c #694C2A",
"S  c #744325",
"D  c #7B4324",
"F  c #734824",
"G  c #73442C",
"H  c #7C432C",
"J  c #774B29",
"K  c #7B4A2B",
"L  c #6F5523",
"P  c #7A522A",
"I  c #644433",
"U  c #6C4532",
"Y  c #634A34",
"T  c #6C4A33",
"R  c #63443C",
"E  c #6C463C",
"W  c #634A3B",
"Q  c #6A4B3C",
"!  c #724433",
"~  c #794736",
"^  c #724B32",
"/  c #724A3A",
"(  c #645234",
")  c #6A533A",
"_  c #74523C",
"`  c #7C5A3B",
"'  c #73642E",
"]  c #573D40",
"[  c #5D4D42",
"{  c #5A4A45",
"}  c #595049",
"|  c #654545",
" . c #664C45",
".. c #6B4B42",
"X. c #754942",
"o. c #635343",
"O. c #6A5243",
"+. c #685846",
"@. c #765545",
"#. c #6A5151",
"$. c #7C6B40",
"%. c #883B1B",
"&. c #803F24",
"*. c #85441C",
"=. c #A44E13",
"-. c #89611C",
";. c #854727",
":. c #8A522B",
">. c #975629",
",. c #854B36",
"<. c #914B37",
"1. c #845334",
"2. c #865738",
"3. c #9B5C35",
"4. c #945939",
"5. c #A65C2C",
"6. c #B85C24",
"7. c #A65935",
"8. c #8D662C",
"9. c #86623D",
"0. c #976536",
"q. c #9A7336",
"w. c #BB642C",
"e. c #AA6636",
"r. c #A5633C",
"t. c #B66839",
"y. c #B1753C",
"u. c #C76A37",
"i. c #D26E3C",
"p. c #C87438",
"a. c #E17C3D",
"s. c #895946",
"d. c #945647",
"f. c #866546",
"g. c #8F6443",
"h. c #9B6B45",
"j. c #946848",
"k. c #947447",
"l. c #9C7544",
"z. c #976955",
"x. c #9A7058",
"c. c #A96745",
"v. c #AB6B43",
"b. c #A8644B",
"n. c #A46D4C",
"m. c #AB6E4C",
"M. c #B46B48",
"N. c #A87547",
"B. c #AB724D",
"V. c #B97647",
"C. c #B3744A",
"Z. c #BB754C",
"A. c #A86D53",
"S. c #B46C58",
"D. c #A87656",
"F. c #AB7B5B",
"G. c #B47554",
"H. c #BD7653",
"J. c #B57959",
"K. c #BD7B5A",
"L. c #A77764",
"P. c #B47A61",
"I. c #C26D45",
"U. c #C77748",
"Y. c #C07A49",
"T. c #D57B49",
"R. c #C67955",
"E. c #C47B5C",
"W. c #C97D5E",
"Q. c #D97E55",
"!. c #E07D4A",
"~. c #C87E62",
"^. c #BA843E",
"/. c #C88A3B",
"(. c #858749",
"). c #918F5C",
"_. c #B68548",
"`. c #B1894E",
"'. c #A98258",
"]. c #B88358",
"[. c #AE866B",
"{. c #B88469",
"}. c #BE9166",
"|. c #ACAB69",
" X c #CC8349",
".X c #C98656",
"XX c #C5835C",
"oX c #D88459",
"OX c #CA9555",
"+X c #D29053",
"@X c #E58652",
"#X c #EC925F",
"$X c #D8A65F",
"%X c #C48364",
"&X c #CB8563",
"*X c #CB8A63",
"=X c #C4856B",
"-X c #C78868",
";X c #CC8D6B",
":X c #D38B65",
">X c #DA8864",
",X c #D28C6C",
"<X c #DC8B6B",
"1X c #C79667",
"2X c #D59465",
"3X c #DC926C",
"4X c #CC8B71",
"5X c #C88B77",
"6X c #D58A74",
"7X c #CB9577",
"8X c #D19B74",
"9X c #D79778",
"0X c #E38D63",
"qX c #E38C6A",
"wX c #E49569",
"eX c #F1986E",
"rX c #E59779",
"tX c #D7A566",
"yX c #D7B36B",
"uX c #DDA376",
"iX c #D1AA75",
"pX c #ECAF70",
"aX c #FDC56D",
"sX c #FEC27C",
"dX c #FAC77D",
"fX c #FDD37D",
"gX c #D69B83",
"hX c #ED9E85",
"jX c #DCA483",
"kX c #EEAC8E",
"lX c #E7C98D",
"zX c #FCC885",
"xX c #FBD488",
"cX c #FFDB8C",
"vX c #FFD997",
"bX c #FFE38C",
"nX c #FEE293",
"mX c #FFE298",
"MX c #FFDBA0",
"NX c #F9E4A7",
"BX c #FFECA3",
"VX c #FFF3A1",
"CX c #F6F8B4",
/* pixels */
"o.n | i E ! 8 =X,X9X4.n.-X7X9X,X3XXX2X X X/./.OXs % h N T Q v  .5 c ",
"5 { {  .| / q 9X=X9X1 ;.;.F h :.N.e.pXpXaXaXfXdXq.q.G.F.5XL.U ..Q ) ",
"I ..W R Y 9 > 4X,X,X= 1 - 2 , j `.q.yXVXxXfXbXvX_.-.y.3XhXE.: r C C ",
"t C 9 > # o P K.:X-X;.D , 1.h 2.`.8.yXmXxXVXmXxXOXe.w.oX0XU.%.;.& ; ",
"c.W.;X2X1XOX1X;.j ;.< H s.L.x.f.N a f a X X g j _..XwXt.5.I.Q.Q.<X9X",
"t.T.eX#X2X_._.% . h D 8 ! L.[.@.k a a k ( l 3 t ;XXX>Xt.t.T.0X<X,X6X",
"u.i.@Xw.+XOX$X-.:.s % h _ z.[.f.Z ) Y v W o.Q U 7X7X&XM.t.I.oX,X~.P.",
"#Xi.u.6.dXxXxXxXBXvXtX8X8X{.gXL.# V l W O.| R 6 w * r rXqXR.%.: t U ",
"wXu.6.=.sXbXbXcXxXvX XV.0XqXhXS.: ~ / R 6 v +.o.6 U y rX6X~.= * U v ",
"R.U.T.u.pXsXdXxXzXzXU.+X0XM.E.b.r i E ..#.m n o.m ! y &XrX~.r u O.m ",
"* 7.>XQ.@X Xp.t. X X>.t.>.$ , ^ I n [ c m c m Y U A : *XrX4Xr y E  .",
"= R.hXqXoX0XwX<X3XR.V.V.v.K @ ) m c } { } n m b k G ; 9X,XG.r e 7 E ",
": A.E.H.G.b.A.A.x.B.N.n.0.A N ) m } { #.] |  .o.l g D XX&XZ.3.4.g.9 ",
"; h.F.A.,.: 7 0 + K D.J.n., @ 3 4 ..| #.| |  .W l B h v.M.V.2XuX].- ",
"X ' k.k.G C ~ t $ D B.c.:.& 2 D 9 I 4 W O.Y Y O C N g 8.>.5.+X3Xb.+ ",
"|.(.' $.Z V / 2.t ;.&X~.R.v.M.b.A.F.` # A Z _ C F.g.8.kXzXpXt.Y.H.A.",
"CX(.  z x c I w - ;.-X,XrXqXqXqXrXjXm.2 h j g % 8XiX1XBXvXzX5.7.E.6X",
"CX).p M m m W ! ^ 1.;X;X>XQ.>XwX3X&X>.% % % . . N.N.`.xXvXMX7.Y.~.6X",
"g.` 4 v v | X.i g > }.8X~.>.*.7.M.].y.:.0.yXlXyXnXxXdX$XOX1X% ;.;.<.",
"@ v ..| i X.i i 9 , 7X9Xm.= $ :.r.N.`.l.(.lXBXnXbXfXfX^.OX`.% t e y ",
"3 W  .X.X.* &.&.= <.4X=XS.;.t 4.].l.'.k.'.lXNXmXVXcXBXOX2XJ.. T I q ",
"_ @.v w L.gXgX~.6XS.<.,.2.0 : S h > P k.' ` L f f s d _.2X1X, _ @.X.",
"g ) 3 @ A.uX~.6XhXgXr 8 ,.! ^ ^ B B 9.{.n.K @ Z a g % uXuX%X* # R n ",
"> J F J N.9X-X~.gX{.u q I w _ N B g g.].F.F J @.V T F XX%XR.y ~ X.| ",
"M.E.&X&XZ.Z.0.% # +.b ) M z x ( A N k.}.7X1.e X.6 e K B.C.H.M.L.s.| ",
"I.&XwX3XV.e.C.` k b x M z } M k g F h.8X8X4.- ! i t 1 C.5.r.c.=Xd.i ",
"3.G.XXE.M.M.H.K 9 C I E b @._ e K ;.v.XX.X3.2 ~ s.;.;.V.t.R.7.S.<.d.",
"2 D & < E.3X9X: D G ~ @./ L.[.D.G.3.Z.M.R.v.v.H.&X<XeX>X.X.X$ t d.6X",
"7 C G + 5XkX~.;.& : h ; 1.D.[.L.F.D.N.m.c.C.t.w.@X!.Q.<XkX=X8 + d.gX",
"/ E E ! x.A.S.4.>.3.:.:.2.9.j.j.g.j.j.h.0.B.Z.p.a.T.@XM.J.z.q q s.J.",
"R I l U e 7 &.P.;X;Xn.F.2.C 9 k 3 9 0 , 2 n.*X+XT.w.v.= @ V W Q U 9 ",
"R O.W W I ! e 6XuXjXD.{.z.T C Z I T C 9 G [.jX2XZ.7.3.K C v v ) Y N ",
"6 m m c v @.# F.G.P.G s._ I 4 v R W Y I C s.j.4.G.;X{.0 V l b b b T ",
"[ [ M +.Y Y 7 P.n.A.; C T W m W W n m E R Q # D D.gXgX+ T ) M x Z Z "
};
